<svg id="e7aGIOtykpz1" xmlns="http://www.w3.org/2000/svg" xmlns:xlink="http://www.w3.org/1999/xlink" viewBox="0 0 640 480" shape-rendering="geometricPrecision" text-rendering="geometricPrecision"><path d="M99.031202,335.170398l-.000001,49.295566c0,0,0-16.944768,0-27.097796c0-23.959498,34.484413-25.36888,34.484413-6.385925-.000001,10.045117,0,33.48372,0,33.48372s0-17.422564,0-27.097795c0-26.249744,34.840089-23.393579,34.840089-6.385925c0,10.045117,0,33.48372,0,33.48372v1.579566c0,6.402109,1.170472,8.681396,6.162187,8.681396c12.710684,0,17.594865-25.397768,17.594865-33.570002c0-.058386,0,0,0,0c0-29.609138-19.781092-58.402523-58.597141-58.402523-36.819082,0-57.544403,24.570769-57.544403,54.613768c0,43.545391,31.144919,62.580514,60.176248,62.580514c25.997158,0,65.396254-15.127775,65.396254-58.791759c0-20.746181,15.629393-20.48165,15.629393-20.48165" transform="matrix(1.899808 0 0 1.899808 59.095649-446.498548)" fill="none" stroke="#000" stroke-width="8" stroke-linecap="round"/></svg>